<svg xmlns="http://www.w3.org/2000/svg" viewBox="0 0 222 222"><defs><style>.cls-1{fill:#fff;}</style></defs><g id="Layer_2" data-name="Layer 2"><g id="Layer_1-2" data-name="Layer 1"><g id="Layer_2-2" data-name="Layer 2"><g id="Layer_1-2-2" data-name="Layer 1-2"><path d="M111,0A111,111,0,1,0,222,111,111,111,0,0,0,111,0Zm-3.64,127.35a1.84,1.84,0,0,1-1.83,1.85H97.08a2,2,0,0,1-1.36-.54,1.69,1.69,0,0,1-.58-1.31V99a1,1,0,0,0-.73-1,1.09,1.09,0,0,0-1.21.39q-4.56,5.73-8,10l-6.06,7.51c-1.71,2.14-3.17,3.93-4.36,5.38s-2.18,2.67-3,3.64l-3.1,3.78c-.2.33-.68.49-1.46.49H56.55a1.45,1.45,0,0,1-1.46-.88,1.68,1.68,0,0,1,.1-1.64c.19-.2,1-1.1,2.28-2.72s2.94-3.57,4.85-5.87,4-4.75,6.15-7.37,4.24-5.07,6.11-7.37,3.48-4.23,4.8-5.81,2.06-2.48,2.18-2.67a2.83,2.83,0,0,0,.78-1.45c.07-.46-.23-1-.87-1.75L57,63.84a1.38,1.38,0,0,1-.24-1.65,1.48,1.48,0,0,1,1.41-.87H68a1.84,1.84,0,0,1,1.55.78h.1L93.3,88.86a1,1,0,0,0,1.21.29,1.07,1.07,0,0,0,.63-1.07V63.16a1.72,1.72,0,0,1,.58-1.31,2,2,0,0,1,1.36-.53h8.43a1.83,1.83,0,0,1,1.85,1.81v64.22Zm59.55,1a1.45,1.45,0,0,1-1.46.88H154.79c-.78,0-1.26-.17-1.46-.49l-3.1-3.78c-.78-1-1.76-2.18-3-3.64s-2.65-3.25-4.36-5.38l-6.06-7.51q-3.5-4.32-8-10A1.09,1.09,0,0,0,127.6,98a1,1,0,0,0-.73,1.07v28.31a1.69,1.69,0,0,1-.58,1.31,2,2,0,0,1-1.36.54H116.5a1.84,1.84,0,0,1-1.85-1.83V63.16a1.83,1.83,0,0,1,1.82-1.84h8.46a2,2,0,0,1,1.36.53,1.69,1.69,0,0,1,.58,1.31V88.08a1.09,1.09,0,0,0,.63,1.07,1,1,0,0,0,1.21-.29l23.66-26.77h.1a1.84,1.84,0,0,1,1.55-.77h9.79a1.48,1.48,0,0,1,1.41.87,1.38,1.38,0,0,1-.24,1.65L140.53,91.67c-.64.71-.94,1.29-.87,1.74a2.86,2.86,0,0,0,.78,1.46c.12.19.85,1.08,2.18,2.67s2.92,3.52,4.8,5.81,3.91,4.76,6.11,7.37,4.25,5.08,6.15,7.37,3.53,4.25,4.85,5.87,2.09,2.52,2.28,2.71a1.7,1.7,0,0,1,.1,1.65Z"/><path class="cls-1" d="M43.33,141.86a.51.51,0,0,1,.5-.52h2.39a.54.54,0,0,1,.38.15.47.47,0,0,1,.16.37v7a.3.3,0,0,0,.18.3.27.27,0,0,0,.34-.08l6.64-7.51h0a.52.52,0,0,1,.44-.22h2.75a.42.42,0,0,1,.32.71l-6.86,7.81c-.18.2-.26.36-.24.49a.81.81,0,0,0,.21.41l.62.75c.37.44.82,1,1.34,1.63l1.72,2.07c.62.73,1.19,1.42,1.73,2.07s1,1.19,1.36,1.65.59.7.64.76a.47.47,0,0,1,0,.46.42.42,0,0,1-.41.25h-3c-.21,0-.35,0-.4-.14l-.88-1.06c-.21-.27-.49-.62-.83-1l-1.22-1.51-1.7-2.11c-.66-.81-1.41-1.75-2.26-2.82a.3.3,0,0,0-.34-.11.28.28,0,0,0-.21.3v7.95a.51.51,0,0,1-.16.37.54.54,0,0,1-.38.15H43.85a.51.51,0,0,1-.52-.52Z"/><path class="cls-1" d="M60.13,153.9a.43.43,0,0,1-.11-.28V152a.36.36,0,0,1,.11-.26.36.36,0,0,1,.27-.12h9.1a.42.42,0,0,1,.3.12.4.4,0,0,1,.1.26v1.58a.42.42,0,0,1-.1.28.42.42,0,0,1-.3.12H60.4A.36.36,0,0,1,60.13,153.9Z"/><path class="cls-1" d="M73.39,158.38a1.18,1.18,0,0,1-.22-.28.74.74,0,0,1,.08-.37h0l1-1.71a.53.53,0,0,1,.36-.26.4.4,0,0,1,.35.07H75a5,5,0,0,0,.68.45c.34.2.74.42,1.19.64a12.74,12.74,0,0,0,1.42.57,4.52,4.52,0,0,0,1.36.24,2.68,2.68,0,0,0,1.89-.67,2.09,2.09,0,0,0,.75-1.61,2.47,2.47,0,0,0-.9-1.91A9,9,0,0,0,78.72,152a16.14,16.14,0,0,1-1.88-.89A7.39,7.39,0,0,1,75.19,150,5.35,5.35,0,0,1,74,148.4a4.78,4.78,0,0,1-.43-2.11,5.34,5.34,0,0,1,.36-1.85,4.84,4.84,0,0,1,1.12-1.7A5.61,5.61,0,0,1,77,141.47a6.7,6.7,0,0,1,2.7-.4,10.47,10.47,0,0,1,2,.28,12.09,12.09,0,0,1,1.67.55,9.82,9.82,0,0,1,1.27.6c.34.19.59.34.73.44a.53.53,0,0,1,.14.71c-.16.26-.34.52-.53.79s-.37.54-.53.79a.82.82,0,0,1-.36.33.36.36,0,0,1-.4,0l-.52-.31c-.29-.17-.64-.36-1-.55a10.17,10.17,0,0,0-1.29-.51,4,4,0,0,0-1.27-.24,2.94,2.94,0,0,0-1.1.2,2.62,2.62,0,0,0-.8.48,2.32,2.32,0,0,0-.49.67,1.74,1.74,0,0,0-.22.7,2.15,2.15,0,0,0,.83,1.73,12.16,12.16,0,0,0,2.49,1.51l2,1a11.26,11.26,0,0,1,1.83,1.23,6.06,6.06,0,0,1,1.35,1.63,4.52,4.52,0,0,1,.53,2.22,5.11,5.11,0,0,1-.44,2,5.41,5.41,0,0,1-1.24,1.76,5.87,5.87,0,0,1-1.94,1.19,6.34,6.34,0,0,1-2.59.36,10.53,10.53,0,0,1-2.37-.36,16.1,16.1,0,0,1-1.92-.66,11.92,11.92,0,0,1-1.37-.72,4.89,4.89,0,0,1-.74-.55Z"/><path class="cls-1" d="M105.6,159.88a.4.4,0,0,1,0,.37.39.39,0,0,1-.33.15h-2.39a.68.68,0,0,1-.68-.47l-.17-.38-.39-.88c-.18-.39-.43-1-.75-1.73a.16.16,0,0,0-.14-.08h-8.3c-.07,0-.12,0-.14.08l-1.36,3a.86.86,0,0,1-.23.33.6.6,0,0,1-.42.14H87.9a.4.4,0,0,1-.32-.14.29.29,0,0,1,0-.35v-.07a2.49,2.49,0,0,1,.27-.63c.15-.35.4-.91.75-1.66s.83-1.82,1.47-3.2l2.42-5.24,3.62-7.8a.37.37,0,0,1,.33-.22h.27a.41.41,0,0,1,.26.07l.12.15c.06.11.16.34.31.68l.75,1.65c.35.75.83,1.82,1.46,3.2S101,150,102,152.08Zm-6.27-5.77a.16.16,0,0,0,.13-.09c.05-.09.05-.09,0-.13l-2.75-6.07a.18.18,0,0,0-.25,0l0,0-2.75,6.07a.11.11,0,0,0,0,.13.14.14,0,0,0,.15.09Z"/><path class="cls-1" d="M124.48,141.49a.3.3,0,0,1,0,.34c-.51,1-1,2-1.36,2.86l-1.37,3c-.5,1.11-1,2.24-1.56,3.39s-1.06,2.29-1.58,3.39l-1.38,3c-.39.87-.84,1.84-1.33,2.91a.38.38,0,0,1-.38.22h-.27a.37.37,0,0,1-.36-.22l-8.49-18.45a.33.33,0,0,1,0-.36.36.36,0,0,1,.33-.16h2.77a.3.3,0,0,1,.33.22l5.31,11.73s.07.08.16.08h.22a.16.16,0,0,0,.14-.08l5.34-11.8c0-.15.14-.22.32-.22h2.81A.44.44,0,0,1,124.48,141.49Z"/><path class="cls-1" d="M144.06,159.88a.35.35,0,0,1,0,.37.39.39,0,0,1-.33.15h-2.4a.7.7,0,0,1-.68-.47l-.16-.38-.39-.88c-.18-.39-.43-1-.75-1.73a.16.16,0,0,0-.14-.08h-8.3c-.08,0-.12,0-.14.08l-1.36,3a.86.86,0,0,1-.23.33.6.6,0,0,1-.42.14h-2.4a.44.44,0,0,1-.33-.14.32.32,0,0,1,0-.35v-.07l.28-.63c.15-.35.4-.91.75-1.66s.83-1.82,1.47-3.2l2.42-5.24,3.62-7.8a.37.37,0,0,1,.33-.22h.27a.41.41,0,0,1,.26.07l.12.15c0,.11.16.34.31.68l.75,1.65c.35.75.83,1.82,1.46,3.2l2.39,5.24C141.49,154.2,142.69,156.79,144.06,159.88Zm-6.26-5.77a.16.16,0,0,0,.13-.09.09.09,0,0,0,0-.13h0l-2.75-6.07a.18.18,0,0,0-.25,0,.12.12,0,0,0-.05,0l-2.75,6.07a.09.09,0,0,0,0,.13h0a.14.14,0,0,0,.15.09Z"/><path class="cls-1" d="M162.55,151.25a.59.59,0,0,1,.14.38v6.81a.44.44,0,0,1-.09.27,1.27,1.27,0,0,1-.13.19h0l-.58.3a12.72,12.72,0,0,1-1.43.6,17.2,17.2,0,0,1-2.1.58,12.51,12.51,0,0,1-2.59.26,9.57,9.57,0,0,1-3.81-.76,10.09,10.09,0,0,1-3.1-2.07,9.84,9.84,0,0,1,0-13.87,10.36,10.36,0,0,1,3.1-2.1,9.41,9.41,0,0,1,3.81-.77,9.6,9.6,0,0,1,3.56.65,10.52,10.52,0,0,1,3.06,1.85.52.52,0,0,1,.18.3.35.35,0,0,1-.13.33l-.21.21-.52.52-1,1a.32.32,0,0,1-.45.07l-.07-.07a6.79,6.79,0,0,0-2-1.2,6.46,6.46,0,0,0-2.26-.41,6.18,6.18,0,0,0-2.47.52,6.4,6.4,0,0,0-2,1.42,6.66,6.66,0,0,0-1.35,2.08,6.55,6.55,0,0,0,3.36,8.45,5.92,5.92,0,0,0,2.49.52,7.08,7.08,0,0,0,2-.25,12,12,0,0,0,1.32-.43c.06,0,.08-.06.08-.14v-2.31c0-.11,0-.17-.13-.17h-2.81a.55.55,0,0,1-.45-.19.64.64,0,0,1-.14-.35v-1.85a.59.59,0,0,1,.14-.38.54.54,0,0,1,.4-.17h5.8A.46.46,0,0,1,162.55,151.25Z"/><path class="cls-1" d="M170.5,144.55V149a.14.14,0,0,0,.12.16H177a.41.41,0,0,1,.38.38v2.31a.39.39,0,0,1-.38.39h-6.29a.14.14,0,0,0-.16.12v4.8c0,.11,0,.17.16.17h7.63a.34.34,0,0,1,.27.13.46.46,0,0,1,.11.27V160a.36.36,0,0,1-.11.26.37.37,0,0,1-.27.13H167.61a.37.37,0,0,1-.27-.13.36.36,0,0,1-.11-.26V141.72a.36.36,0,0,1,.11-.26.36.36,0,0,1,.27-.12h10.68a.36.36,0,0,1,.27.12.36.36,0,0,1,.11.26V144a.46.46,0,0,1-.11.27.32.32,0,0,1-.27.14h-7.63a.14.14,0,0,0-.16.12Z"/></g></g></g></g></svg>