<svg xmlns="http://www.w3.org/2000/svg" viewBox="0 0 222 222"><defs><style>.cls-1{fill:#fff;}.cls-2{fill:#231f20;}</style></defs><g id="Layer_2" data-name="Layer 2"><g id="Layer_1-2" data-name="Layer 1"><path class="cls-1" d="M111,0A111,111,0,1,0,222,111,111,111,0,0,0,111,0Zm-3.64,127.35a1.84,1.84,0,0,1-1.85,1.85H97.08a1.94,1.94,0,0,1-1.36-.54,1.69,1.69,0,0,1-.58-1.31V99A1,1,0,0,0,94.41,98a1.09,1.09,0,0,0-1.21.39q-4.56,5.73-8,10l-6.06,7.51q-2.57,3.21-4.36,5.38c-1.2,1.46-2.18,2.67-3,3.64l-3.1,3.78c-.2.33-.68.49-1.46.49H56.55a1.45,1.45,0,0,1-1.46-.88,1.68,1.68,0,0,1,.1-1.64c.19-.2,1-1.1,2.28-2.72s2.94-3.57,4.85-5.87,4-4.75,6.15-7.37,4.24-5.07,6.11-7.37,3.48-4.23,4.8-5.81,2.06-2.48,2.18-2.67a2.86,2.86,0,0,0,.78-1.45c.07-.46-.23-1-.87-1.75L57,63.84a1.39,1.39,0,0,1-.24-1.65,1.47,1.47,0,0,1,1.41-.87H68a1.84,1.84,0,0,1,1.55.78h.1L93.3,88.86a1,1,0,0,0,1.21.29,1.07,1.07,0,0,0,.63-1.07V63.16a1.72,1.72,0,0,1,.58-1.31,2,2,0,0,1,1.36-.53h8.43a1.83,1.83,0,0,1,1.85,1.84Zm59.55,1a1.46,1.46,0,0,1-1.46.88H154.79c-.78,0-1.26-.17-1.46-.49l-3.1-3.78c-.78-1-1.76-2.18-3-3.64s-2.65-3.25-4.36-5.38l-6.06-7.51q-3.49-4.32-8-10a1.09,1.09,0,0,0-1.21-.39,1,1,0,0,0-.73,1.07v28.31a1.69,1.69,0,0,1-.58,1.31,1.94,1.94,0,0,1-1.36.54h-8.43a1.84,1.84,0,0,1-1.85-1.85V63.16a1.83,1.83,0,0,1,1.85-1.84h8.43a2,2,0,0,1,1.36.53,1.7,1.7,0,0,1,.58,1.31V88.08a1.08,1.08,0,0,0,.63,1.07,1,1,0,0,0,1.21-.29l23.66-26.77h.1a1.85,1.85,0,0,1,1.55-.77h9.79a1.47,1.47,0,0,1,1.41.87,1.39,1.39,0,0,1-.24,1.65L140.53,91.67c-.64.71-.94,1.29-.87,1.74a2.84,2.84,0,0,0,.78,1.46c.12.19.85,1.08,2.18,2.67s2.92,3.52,4.8,5.81,3.91,4.76,6.11,7.37,4.25,5.08,6.15,7.37,3.53,4.25,4.85,5.87,2.09,2.52,2.28,2.71A1.7,1.7,0,0,1,166.91,128.32Z"/><path class="cls-2" d="M43.33,141.86a.51.51,0,0,1,.52-.52h2.37a.55.55,0,0,1,.38.15.47.47,0,0,1,.16.37v7a.29.29,0,0,0,.18.3.27.27,0,0,0,.34-.08l6.64-7.51h0a.51.51,0,0,1,.44-.22h2.75a.41.41,0,0,1,.39.24.4.4,0,0,1-.07.47l-6.86,7.81c-.18.2-.26.36-.24.49a.8.8,0,0,0,.21.41l.62.75c.37.44.82,1,1.34,1.63l1.72,2.07c.62.73,1.19,1.42,1.73,2.07s1,1.19,1.36,1.65.59.7.64.76a.47.47,0,0,1,0,.46.42.42,0,0,1-.41.25h-3c-.21,0-.35-.05-.4-.14l-.88-1.06c-.21-.27-.49-.62-.83-1l-1.22-1.51-1.7-2.11c-.66-.81-1.41-1.75-2.26-2.82a.3.3,0,0,0-.34-.11.28.28,0,0,0-.21.3v7.95a.49.49,0,0,1-.16.37.55.55,0,0,1-.38.15H43.85a.5.5,0,0,1-.37-.15.51.51,0,0,1-.15-.37Z"/><path class="cls-2" d="M60.13,153.9a.41.41,0,0,1-.11-.28V152a.4.4,0,0,1,.11-.26.34.34,0,0,1,.27-.12h9.1a.41.41,0,0,1,.3.12.39.39,0,0,1,.1.26v1.58a.4.4,0,0,1-.1.28.41.41,0,0,1-.3.12H60.4A.34.34,0,0,1,60.13,153.9Z"/><path class="cls-2" d="M73.39,158.38a1.14,1.14,0,0,1-.22-.28c0-.09,0-.21.08-.37v0l1-1.71a.52.52,0,0,1,.36-.26.41.41,0,0,1,.35.07l.06,0a5.48,5.48,0,0,0,.68.45c.34.2.74.42,1.19.64s.93.4,1.42.57a4.39,4.39,0,0,0,1.36.24,2.72,2.72,0,0,0,1.89-.67,2.07,2.07,0,0,0,.75-1.61,2.5,2.5,0,0,0-.9-1.91,8.87,8.87,0,0,0-2.69-1.53,16.06,16.06,0,0,1-1.88-.89A7.46,7.46,0,0,1,75.19,150a5.4,5.4,0,0,1-1.15-1.6,4.85,4.85,0,0,1-.43-2.11,5.19,5.19,0,0,1,.36-1.85,4.89,4.89,0,0,1,1.12-1.7A5.66,5.66,0,0,1,77,141.47a6.65,6.65,0,0,1,2.7-.4,10.17,10.17,0,0,1,2,.28,12.11,12.11,0,0,1,1.67.55,10.22,10.22,0,0,1,1.27.6c.34.19.59.34.73.44a.53.53,0,0,1,.21.33.54.54,0,0,1-.07.38c-.16.26-.34.52-.53.79s-.37.54-.53.79a.82.82,0,0,1-.36.33.36.36,0,0,1-.4,0l-.52-.31c-.29-.17-.64-.36-1-.55a10.2,10.2,0,0,0-1.29-.51,3.88,3.88,0,0,0-1.27-.24,2.92,2.92,0,0,0-1.1.2,2.62,2.62,0,0,0-.8.48,2.17,2.17,0,0,0-.49.67A1.78,1.78,0,0,0,77,146a2.14,2.14,0,0,0,.83,1.73,12.09,12.09,0,0,0,2.49,1.51l2,1a10.83,10.83,0,0,1,1.83,1.23,6.25,6.25,0,0,1,1.35,1.63,4.5,4.5,0,0,1,.53,2.22,5,5,0,0,1-.44,2,5.37,5.37,0,0,1-1.24,1.76,5.82,5.82,0,0,1-1.94,1.19,6.34,6.34,0,0,1-2.59.36,10.89,10.89,0,0,1-2.37-.36,14.73,14.73,0,0,1-1.92-.66,11.23,11.23,0,0,1-1.37-.72,5,5,0,0,1-.74-.55Z"/><path class="cls-2" d="M105.6,159.88a.4.4,0,0,1,0,.37.37.37,0,0,1-.33.15h-2.39a.68.68,0,0,1-.68-.47l-.17-.38-.39-.88c-.18-.39-.43-1-.75-1.73a.15.15,0,0,0-.14-.08h-8.3c-.07,0-.12,0-.14.08l-1.36,3a.86.86,0,0,1-.23.33.61.61,0,0,1-.42.14h-2.4a.39.39,0,0,1-.32-.14.28.28,0,0,1,0-.35l0-.07q0-.1.27-.63c.15-.35.4-.91.75-1.66s.83-1.82,1.47-3.2,1.44-3.12,2.42-5.24l3.62-7.8a.36.36,0,0,1,.33-.22h.27a.4.4,0,0,1,.26.07l.12.15c.06.11.16.34.31.68l.75,1.65c.35.75.83,1.82,1.46,3.2S101,150,102,152.08Zm-6.27-5.77s.08,0,.13-.09.05-.09,0-.13l-2.75-6.07a.18.18,0,0,0-.3,0l-2.75,6.07a.1.1,0,0,0,0,.13.14.14,0,0,0,.15.09Z"/><path class="cls-2" d="M124.48,141.49a.32.32,0,0,1,0,.34c-.51,1-1,2-1.36,2.86l-1.37,3c-.5,1.11-1,2.24-1.56,3.39s-1.06,2.29-1.58,3.39l-1.38,3c-.39.87-.84,1.84-1.33,2.91a.38.38,0,0,1-.38.22h-.27a.37.37,0,0,1-.36-.22l-8.49-18.45a.33.33,0,0,1,0-.36.36.36,0,0,1,.33-.16h2.77a.3.3,0,0,1,.33.22l5.31,11.73c0,.05.07.08.16.08h.22a.19.19,0,0,0,.14-.08L121,141.56c0-.15.14-.22.32-.22h2.81A.43.43,0,0,1,124.48,141.49Z"/><path class="cls-2" d="M144.06,159.88a.37.37,0,0,1,0,.37.39.39,0,0,1-.33.15h-2.4a.7.7,0,0,1-.68-.47l-.16-.38-.39-.88c-.18-.39-.43-1-.75-1.73a.15.15,0,0,0-.14-.08h-8.3c-.08,0-.12,0-.14.08l-1.36,3a.86.86,0,0,1-.23.33.61.61,0,0,1-.42.14h-2.4a.42.42,0,0,1-.33-.14.32.32,0,0,1,0-.35s0,0,0-.07l.28-.63c.15-.35.4-.91.75-1.66s.83-1.82,1.47-3.2,1.44-3.12,2.42-5.24l3.62-7.8a.36.36,0,0,1,.33-.22h.27a.4.4,0,0,1,.26.07l.12.15c.05.11.16.34.31.68l.75,1.65c.35.75.83,1.82,1.46,3.2l2.39,5.24Q142,155.25,144.06,159.88Zm-6.26-5.77s.08,0,.13-.09a.09.09,0,0,0,0-.13l-2.75-6.07a.18.18,0,0,0-.3,0l-2.75,6.07a.09.09,0,0,0,0,.13.14.14,0,0,0,.15.09Z"/><path class="cls-2" d="M162.55,151.25a.57.57,0,0,1,.14.38v6.81a.48.48,0,0,1-.09.27,1.46,1.46,0,0,1-.13.19h0l-.58.3a14.14,14.14,0,0,1-1.43.6,17.18,17.18,0,0,1-2.1.58,12.42,12.42,0,0,1-2.59.26,9.5,9.5,0,0,1-3.81-.76,10.14,10.14,0,0,1-3.1-2.07,9.59,9.59,0,0,1-2.86-6.92,9.73,9.73,0,0,1,2.86-6.95,10.23,10.23,0,0,1,3.1-2.1,9.34,9.34,0,0,1,3.81-.77,9.62,9.62,0,0,1,3.56.65,10.48,10.48,0,0,1,3.06,1.85.51.51,0,0,1,.18.3.33.33,0,0,1-.13.33l-.21.21-.52.52-1,1a.32.32,0,0,1-.52,0,6.7,6.7,0,0,0-2-1.2,6.46,6.46,0,0,0-2.26-.41,6.08,6.08,0,0,0-2.47.52,6.22,6.22,0,0,0-2,1.42,6.66,6.66,0,0,0-1.35,2.08,6.47,6.47,0,0,0-.49,2.52,6.44,6.44,0,0,0,3.85,5.93,6,6,0,0,0,2.49.52,7.18,7.18,0,0,0,2-.25,12.13,12.13,0,0,0,1.32-.43c.06,0,.08-.06.08-.14v-2.31c0-.11,0-.17-.13-.17h-2.81a.53.53,0,0,1-.45-.19.6.6,0,0,1-.14-.35v-1.85a.57.57,0,0,1,.14-.38.53.53,0,0,1,.4-.17h5.8A.47.47,0,0,1,162.55,151.25Z"/><path class="cls-2" d="M170.5,144.55V149a.14.14,0,0,0,.16.16H177a.41.41,0,0,1,.38.38v2.31a.38.38,0,0,1-.12.28.4.4,0,0,1-.26.11h-6.29a.14.14,0,0,0-.16.16v4.76c0,.11.05.17.16.17h7.63a.34.34,0,0,1,.27.13.45.45,0,0,1,.11.27V160a.38.38,0,0,1-.11.26.37.37,0,0,1-.27.13H167.61a.37.37,0,0,1-.27-.13.38.38,0,0,1-.11-.26V141.72a.4.4,0,0,1,.11-.26.36.36,0,0,1,.27-.12h10.68a.36.36,0,0,1,.27.12.4.4,0,0,1,.11.26V144a.45.45,0,0,1-.11.27.35.35,0,0,1-.27.14h-7.63A.14.14,0,0,0,170.5,144.55Z"/></g></g></svg>